@@ -0,0 +1,58 @@
# Blender v2.79 (sub 0) OBJ File: 'refraction.blend'
# www.blender.org
mtllib refraction.mtl
o Cube.001
v -0.700000 -1.000000 -0.300000
v -0.700000 -0.600000 -0.300000
v -0.700000 -1.000000 -0.700000
v -0.700000 -0.600000 -0.700000
v -0.300000 -1.000000 -0.300000
v -0.300000 -0.600000 -0.300000
v -0.300000 -1.000000 -0.700000
v -0.300000 -0.600000 -0.700000
vn -1.0000 0.0000 0.0000
vn 0.0000 0.0000 -1.0000
vn 1.0000 0.0000 0.0000
vn 0.0000 0.0000 1.0000
vn 0.0000 -1.0000 0.0000
vn 0.0000 1.0000 0.0000
usemtl Material.002
s off
f 1//1 2//1 4//1 3//1
f 3//2 4//2 8//2 7//2
f 7//3 8//3 6//3 5//3
f 5//4 6//4 2//4 1//4
f 3//5 7//5 5//5 1//5
f 8//6 4//6 2//6 6//6
o Plane
v -8.756459 -1.000030 8.626967
v 7.946122 -1.000030 8.626967
v -8.756459 -1.000030 -8.075614
v 7.946122 -1.000030 -8.075614
vn 0.0000 1.0000 0.0000
usemtl Material.003
s off
f 9//7 10//7 12//7 11//7
o Cube
v 0.200000 -1.000000 -0.200000
v 0.200000 -1.000000 0.200000
v -0.200000 -1.000000 0.200000
v -0.200000 -1.000000 -0.200000
v 0.200000 -0.600000 -0.200000
v 0.200000 -0.600000 0.200000
v -0.200000 -0.600000 0.200000
v -0.200000 -0.600000 -0.200000
vn 0.0000 -1.0000 -0.0000
vn 0.0000 1.0000 -0.0000
vn 1.0000 0.0000 0.0000
vn -0.0000 -0.0000 1.0000
vn -1.0000 -0.0000 -0.0000
vn 0.0000 0.0000 -1.0000
usemtl Material.009
s off
f 13//8 14//8 15//8 16//8
f 17//9 20//9 19//9 18//9
f 13//10 17//10 18//10 14//10
f 14//11 18//11 19//11 15//11
f 15//12 19//12 20//12 16//12
f 17//13 13//13 16//13 20//13